<svg width="50" height="50" viewBox="0 0 50 50" fill="none" xmlns="http://www.w3.org/2000/svg">
<mask id="mask0_216_56" style="mask-type:alpha" maskUnits="userSpaceOnUse" x="0" y="0" width="50" height="50">
<rect width="50" height="50" fill="#D9D9D9"/>
</mask>
<g mask="url(#mask0_216_56)">
<path d="M25 25.0001C26.1459 25.0001 27.1268 24.5921 27.9427 23.7761C28.7587 22.9602 29.1667 21.9792 29.1667 20.8334C29.1667 19.6876 28.7587 18.7067 27.9427 17.8907C27.1268 17.0747 26.1459 16.6667 25 16.6667C23.8542 16.6667 22.8733 17.0747 22.0573 17.8907C21.2414 18.7067 20.8334 19.6876 20.8334 20.8334C20.8334 21.9792 21.2414 22.9602 22.0573 23.7761C22.8733 24.5921 23.8542 25.0001 25 25.0001ZM25 40.3126C29.2362 36.4237 32.3785 32.8907 34.4271 29.7136C36.4757 26.5365 37.5 23.7154 37.5 21.2501C37.5 17.4654 36.2934 14.3664 33.8802 11.9532C31.4671 9.54001 28.507 8.33342 25 8.33342C21.4931 8.33342 18.533 9.54001 16.1198 11.9532C13.7066 14.3664 12.5 17.4654 12.5 21.2501C12.5 23.7154 13.5243 26.5365 15.573 29.7136C17.6216 32.8907 20.7639 36.4237 25 40.3126ZM25 45.8334C19.4098 41.0765 15.2344 36.6581 12.474 32.5782C9.71358 28.4983 8.33337 24.7223 8.33337 21.2501C8.33337 16.0417 10.0087 11.8924 13.3594 8.80217C16.7101 5.71189 20.5903 4.16675 25 4.16675C29.4098 4.16675 33.29 5.71189 36.6407 8.80217C39.9914 11.8924 41.6667 16.0417 41.6667 21.2501C41.6667 24.7223 40.2865 28.4983 37.5261 32.5782C34.7657 36.6581 30.5903 41.0765 25 45.8334Z" fill="#1C1B1F"/>
</g>
</svg>
