<svg width="50" height="50" viewBox="0 0 50 50" fill="none" xmlns="http://www.w3.org/2000/svg">
<g id="productivity">
<mask id="mask0_208_24" style="mask-type:alpha" maskUnits="userSpaceOnUse" x="0" y="0" width="50" height="50">
<rect id="Bounding box" width="50" height="50" fill="#D9D9D9"/>
</mask>
<g mask="url(#mask0_208_24)">
<path id="productivity_2" d="M5.82935 32.4919V27.8606C5.82935 26.7869 6.10646 25.8287 6.6607 24.9861C7.2149 24.1434 7.95504 23.4878 8.88112 23.0192C10.861 22.0508 12.8519 21.3042 14.8537 20.7793C16.8556 20.2545 19.0558 19.9921 21.4543 19.9921C22.9901 19.9921 24.4484 20.1036 25.8293 20.3266C27.2102 20.5497 28.5643 20.8815 29.8917 21.3222C29.4579 21.689 29.0623 22.0885 28.705 22.5208C28.3477 22.953 28.0248 23.4055 27.7363 23.8782C26.7481 23.6138 25.7365 23.4208 24.7015 23.2993C23.6665 23.1778 22.5841 23.117 21.4543 23.117C19.3763 23.117 17.4292 23.3447 15.6129 23.8001C13.7967 24.2555 12.0312 24.9252 10.3165 25.8093C9.84374 26.0631 9.49851 26.3595 9.2808 26.6988C9.06313 27.038 8.95429 27.4253 8.95429 27.8606V29.367H25.6771C25.6209 29.8834 25.5929 30.3998 25.5929 30.9161C25.5929 31.4325 25.6143 31.9578 25.657 32.4919H5.82935ZM21.4543 16.6266C19.4491 16.6266 17.7326 15.9127 16.3046 14.4847C14.8767 13.0568 14.1627 11.3402 14.1627 9.33502C14.1627 7.32984 14.8767 5.61328 16.3046 4.18533C17.7326 2.75741 19.4491 2.04346 21.4543 2.04346C23.4595 2.04346 25.176 2.75741 26.604 4.18533C28.0319 5.61328 28.7459 7.32984 28.7459 9.33502C28.7459 11.3402 28.0319 13.0568 26.604 14.4847C25.176 15.9127 23.4595 16.6266 21.4543 16.6266ZM21.4543 13.5017C22.6001 13.5017 23.581 13.0937 24.397 12.2777C25.213 11.4618 25.621 10.4809 25.621 9.33502C25.621 8.18919 25.213 7.20828 24.397 6.39231C23.581 5.57634 22.6001 5.16835 21.4543 5.16835C20.3085 5.16835 19.3276 5.57634 18.5116 6.39231C17.6956 7.20828 17.2876 8.18919 17.2876 9.33502C17.2876 10.4809 17.6956 11.4618 18.5116 12.2777C19.3276 13.0937 20.3085 13.5017 21.4543 13.5017ZM39.4429 9.33502C39.4429 11.3402 38.7289 13.0568 37.301 14.4847C35.873 15.9127 34.1565 16.6266 32.1513 16.6266C31.9162 16.6266 31.6171 16.5999 31.2539 16.5465C30.8906 16.4931 30.5915 16.4343 30.3565 16.3702C31.2005 15.3793 31.8375 14.2823 32.2675 13.0793C32.6975 11.8762 32.9125 10.6269 32.9125 9.33132C32.9125 8.03573 32.6908 6.79099 32.2475 5.5971C31.8041 4.40318 31.1738 3.30408 30.3565 2.29981C30.6556 2.19301 30.9547 2.12358 31.2539 2.09153C31.553 2.05948 31.8521 2.04346 32.1513 2.04346C34.1565 2.04346 35.873 2.75741 37.301 4.18533C38.7289 5.61328 39.4429 7.32984 39.4429 9.33502ZM39.1566 40.044C36.5479 40.044 34.3242 39.1246 32.4855 37.286C30.6469 35.4473 29.7275 33.2236 29.7275 30.6149C29.7275 27.9747 30.6469 25.7379 32.4855 23.9043C34.3242 22.0707 36.5479 21.1539 39.1566 21.1539C41.7968 21.1539 44.0336 22.0707 45.8672 23.9043C47.7008 25.7379 48.6176 27.9747 48.6176 30.6149C48.6176 33.2236 47.7008 35.4473 45.8672 37.286C44.0336 39.1246 41.7968 40.044 39.1566 40.044ZM37.8244 35.4968L44.4069 28.8823L43.1088 27.6042L37.8244 32.8686L35.1562 30.2003L33.8581 31.5305L37.8244 35.4968Z" fill="#1C1B1F"/>
</g>
</g>
</svg>
