<svg width="50" height="50" viewBox="0 0 50 50" fill="none" xmlns="http://www.w3.org/2000/svg">
<g id="schedule">
<mask id="mask0_208_34" style="mask-type:alpha" maskUnits="userSpaceOnUse" x="0" y="0" width="50" height="50">
<rect id="Bounding box" width="50" height="50" fill="#D9D9D9"/>
</mask>
<g mask="url(#mask0_208_34)">
<path id="schedule_2" d="M32.2356 34.431L34.431 32.2356L26.5624 24.3665V14.5833H23.4375V25.633L32.2356 34.431ZM25.0035 44.7916C22.2661 44.7916 19.6931 44.2722 17.2845 43.2333C14.8759 42.1944 12.7807 40.7845 10.999 39.0036C9.21726 37.2226 7.80673 35.1284 6.76738 32.7208C5.72804 30.3133 5.20837 27.7408 5.20837 25.0035C5.20837 22.2661 5.72782 19.6931 6.76671 17.2845C7.8056 14.8759 9.21549 12.7807 10.9964 10.999C12.7773 9.21727 14.8716 7.80673 17.2792 6.76739C19.6867 5.72805 22.2591 5.20837 24.9965 5.20837C27.7339 5.20837 30.3069 5.72782 32.7155 6.76671C35.1241 7.8056 37.2193 9.21549 39.001 10.9964C40.7827 12.7773 42.1933 14.8716 43.2326 17.2792C44.2719 19.6867 44.7916 22.2591 44.7916 24.9965C44.7916 27.7339 44.2722 30.3068 43.2333 32.7155C42.1944 35.1241 40.7845 37.2193 39.0036 39.001C37.2226 40.7827 35.1284 42.1933 32.7208 43.2326C30.3133 44.2719 27.7408 44.7916 25.0035 44.7916ZM25 41.6667C29.618 41.6667 33.5503 40.0434 36.7969 36.7969C40.0434 33.5503 41.6667 29.618 41.6667 25C41.6667 20.3819 40.0434 16.4496 36.7969 13.2031C33.5503 9.95659 29.618 8.33332 25 8.33332C20.3819 8.33332 16.4496 9.95659 13.2031 13.2031C9.95659 16.4496 8.33332 20.3819 8.33332 25C8.33332 29.618 9.95659 33.5503 13.2031 36.7969C16.4496 40.0434 20.3819 41.6667 25 41.6667Z" fill="#1C1B1F"/>
</g>
</g>
</svg>
