<svg width="50" height="50" viewBox="0 0 50 50" fill="none" xmlns="http://www.w3.org/2000/svg">
<mask id="mask0_208_17" style="mask-type:alpha" maskUnits="userSpaceOnUse" x="0" y="0" width="50" height="50">
<rect width="50" height="50" fill="#D9D9D9"/>
</mask>
<g mask="url(#mask0_208_17)">
<path d="M22.8124 36.3183L33.8621 25.2686L31.6025 23.0091L22.7804 31.8312L18.3653 27.4161L16.1378 29.6436L22.8124 36.3183ZM13.141 44.7918C12.0887 44.7918 11.1979 44.4273 10.4688 43.6981C9.73958 42.9689 9.375 42.0782 9.375 41.0258V8.97466C9.375 7.9223 9.73958 7.03153 10.4688 6.30237C11.1979 5.5732 12.0887 5.20862 13.141 5.20862H29.6875L40.6249 16.146V41.0258C40.6249 42.0782 40.2603 42.9689 39.5312 43.6981C38.802 44.4273 37.9112 44.7918 36.8589 44.7918H13.141ZM28.125 17.7085V8.33357H13.141C12.9808 8.33357 12.8338 8.40034 12.7003 8.53388C12.5667 8.66746 12.4999 8.81438 12.4999 8.97466V41.0258C12.4999 41.1861 12.5667 41.333 12.7003 41.4666C12.8338 41.6001 12.9808 41.6669 13.141 41.6669H36.8589C37.0191 41.6669 37.1661 41.6001 37.2996 41.4666C37.4332 41.333 37.5 41.1861 37.5 41.0258V17.7085H28.125Z" fill="#1C1B1F"/>
</g>
</svg>
