<svg width="50" height="50" viewBox="0 0 50 50" fill="none" xmlns="http://www.w3.org/2000/svg">
<g clip-path="url(#clip0_10_9)">
<path d="M40 0H10C4.47715 0 0 4.47715 0 10V40C0 45.5228 4.47715 50 10 50H40C45.5228 50 50 45.5228 50 40V10C50 4.47715 45.5228 0 40 0Z" fill="black"/>
<path d="M16.2057 21.1261C15.9185 21.3175 14.1711 21.8441 13.3333 22.0835C13.5328 22.4426 14.1472 23.2564 15.0089 23.6394C16.0861 24.1181 17.0435 24.2378 17.7616 24.2378C18.4797 24.3575 19.3175 23.8787 20.1553 23.6394C20.993 23.4 22.6686 22.5622 22.9079 22.3228C23.1473 22.0835 24.9426 21.9638 25.4213 21.8441C25.9 21.7245 27.0969 21.9638 28.0543 22.3228C29.0118 22.6819 30.3283 23.8787 31.5251 24.3575C32.7219 24.8362 33.081 25.0756 33.9187 25.0756C34.589 25.0756 34.9959 24.916 35.1156 24.8362C35.4746 24.7165 36.2885 24.3575 36.6714 23.8787L37.0305 23.4C37.1262 23.2085 37.0704 22.9213 37.0305 22.8016C36.9108 22.6819 36.7911 22.5622 36.6714 22.5622C36.6168 22.5622 36.3759 22.6538 35.9534 22.4426C35.512 22.2218 35.5943 22.2032 35.3549 21.9638C35.1156 21.7245 34.7565 21.2457 34.6369 21.1261C34.5411 21.0303 34.1182 20.1287 33.9187 19.6898C33.7592 19.251 33.4161 18.3015 33.3203 18.0143C33.2006 17.6553 33.081 17.2962 32.8416 16.6978C32.6501 16.219 32.1235 15.3015 31.8841 14.9025C31.7246 14.5834 31.2618 13.8015 30.6873 13.227C29.9692 12.5089 29.0118 11.9105 28.8921 11.7908C28.7963 11.695 27.8149 11.352 27.3362 11.1924C26.9373 11.0727 26.0436 10.8333 25.6606 10.8333C25.1819 10.8333 24.8229 10.8333 24.4638 10.953C24.1048 11.0727 23.5064 11.312 22.908 11.5514C22.4293 11.7429 21.6712 12.2695 21.3521 12.5089L20.7537 13.1073C20.3547 13.6658 19.4371 15.0222 18.9584 15.9797C18.36 17.1765 17.2829 19.8095 17.0435 20.2883C16.8041 20.767 16.5648 20.8867 16.2057 21.1261Z" fill="white"/>
<path d="M23.3431 35.4199V38.3333H18.1591V35.4199H19.4775V28.234H18.1917V25.3695H24.1731L28.2259 33.068V28.2503H26.9238V25.3858H32.1077V28.2503H30.8219V38.3333H25.8903L22.041 31.18V35.4199H23.3431Z" fill="white"/>
</g>
<defs>
<clipPath id="clip0_10_9">
<rect width="50" height="50" fill="white"/>
</clipPath>
</defs>
</svg>
